name rise32.9588peak41.5061fall63.4684.mot
datacolumns 19
datarows 15
range 2.64499400000000 2.66832400000000
endheader
time	ground_force1_vx	ground_force1_vy	ground_force1_vz	ground_force1_px	ground_force1_py	ground_force1_pz	ground_force2_vx	ground_force2_vy	ground_force2_vz	ground_force2_px	ground_force2_py	ground_force2_pz	ground_torque1_x	ground_torque1_y	ground_torque1_z	ground_torque2_x	ground_torque2_y	ground_torque2_z	
2.64499400000000	41.94104700000000	721.15903700000001	46.87330700000000	0.27498200000000	0.00000000000000	0.09856300000000	0.00000000000000	0.00000000000000	0.00000000000000	0.00000000000000	0.00000000000000	0.00000000000000	0.00000000000000	16.27477200000000	0.00000000000000	0.00000000000000	0.00000000000000	0.00000000000000	
2.64666100000000	41.55305300000000	724.64806399999998	46.88475900000000	0.27439200000000	0.00000000000000	0.09853600000000	0.00000000000000	0.00000000000000	0.00000000000000	0.00000000000000	0.00000000000000	0.00000000000000	0.00000000000000	16.24837400000000	0.00000000000000	0.00000000000000	0.00000000000000	0.00000000000000	
2.64832800000000	41.17604100000000	728.09888300000000	46.89926000000000	0.27383700000000	0.00000000000000	0.09850900000000	0.00000000000000	0.00000000000000	0.00000000000000	0.00000000000000	0.00000000000000	0.00000000000000	0.00000000000000	16.22438900000000	0.00000000000000	0.00000000000000	0.00000000000000	0.00000000000000	
2.64998700000000	40.80997800000000	731.50735799999995	46.91734000000000	0.27331400000000	0.00000000000000	0.09848200000000	0.00000000000000	0.00000000000000	0.00000000000000	0.00000000000000	0.00000000000000	0.00000000000000	0.00000000000000	16.20304600000000	0.00000000000000	0.00000000000000	0.00000000000000	0.00000000000000	
2.65165600000000	40.45473200000000	734.86919200000000	46.93944300000000	0.27282100000000	0.00000000000000	0.09845500000000	0.00000000000000	0.00000000000000	0.00000000000000	0.00000000000000	0.00000000000000	0.00000000000000	0.00000000000000	16.18453200000000	0.00000000000000	0.00000000000000	0.00000000000000	0.00000000000000	
2.65332500000000	40.11008100000000	738.17995599999995	46.96593400000000	0.27235500000000	0.00000000000000	0.09843000000000	0.00000000000000	0.00000000000000	0.00000000000000	0.00000000000000	0.00000000000000	0.00000000000000	0.00000000000000	16.16899700000000	0.00000000000000	0.00000000000000	0.00000000000000	0.00000000000000	
2.65498700000000	39.77571500000000	741.43510900000001	46.99709300000000	0.27191200000000	0.00000000000000	0.09840500000000	0.00000000000000	0.00000000000000	0.00000000000000	0.00000000000000	0.00000000000000	0.00000000000000	0.00000000000000	16.15654900000000	0.00000000000000	0.00000000000000	0.00000000000000	0.00000000000000	
2.65665800000000	39.45124300000000	744.63002600000004	47.03312200000000	0.27149100000000	0.00000000000000	0.09838100000000	0.00000000000000	0.00000000000000	0.00000000000000	0.00000000000000	0.00000000000000	0.00000000000000	0.00000000000000	16.14726000000000	0.00000000000000	0.00000000000000	0.00000000000000	0.00000000000000	
2.65832100000000	39.13620100000000	747.76002700000004	47.07414700000000	0.27108800000000	0.00000000000000	0.09835900000000	0.00000000000000	0.00000000000000	0.00000000000000	0.00000000000000	0.00000000000000	0.00000000000000	0.00000000000000	16.14116500000000	0.00000000000000	0.00000000000000	0.00000000000000	0.00000000000000	
2.65999300000000	38.83005500000000	750.82039499999996	47.12022000000000	0.27069900000000	0.00000000000000	0.09833800000000	0.00000000000000	0.00000000000000	0.00000000000000	0.00000000000000	0.00000000000000	0.00000000000000	0.00000000000000	16.13826500000000	0.00000000000000	0.00000000000000	0.00000000000000	0.00000000000000	
2.66165600000000	38.53221100000000	753.80640900000003	47.17132200000000	0.27032200000000	0.00000000000000	0.09831900000000	0.00000000000000	0.00000000000000	0.00000000000000	0.00000000000000	0.00000000000000	0.00000000000000	0.00000000000000	16.13852600000000	0.00000000000000	0.00000000000000	0.00000000000000	0.00000000000000	
2.66332700000000	38.24201700000000	756.71336699999995	47.22736900000000	0.26995400000000	0.00000000000000	0.09830300000000	0.00000000000000	0.00000000000000	0.00000000000000	0.00000000000000	0.00000000000000	0.00000000000000	0.00000000000000	16.14188700000000	0.00000000000000	0.00000000000000	0.00000000000000	0.00000000000000	
2.66498900000000	37.95877500000000	759.53661000000000	47.28821400000000	0.26959100000000	0.00000000000000	0.09828900000000	0.00000000000000	0.00000000000000	0.00000000000000	0.00000000000000	0.00000000000000	0.00000000000000	0.00000000000000	16.14825500000000	0.00000000000000	0.00000000000000	0.00000000000000	0.00000000000000	
2.66665800000000	37.68174500000000	762.27154800000005	47.35365300000000	0.26923100000000	0.00000000000000	0.09827700000000	0.00000000000000	0.00000000000000	0.00000000000000	0.00000000000000	0.00000000000000	0.00000000000000	0.00000000000000	16.15751200000000	0.00000000000000	0.00000000000000	0.00000000000000	0.00000000000000	
2.66832400000000	37.41015300000000	764.91368799999998	47.42342500000000	0.26887000000000	0.00000000000000	0.09826800000000	0.00000000000000	0.00000000000000	0.00000000000000	0.00000000000000	0.00000000000000	0.00000000000000	0.00000000000000	16.16951200000000	0.00000000000000	0.00000000000000	0.00000000000000	0.00000000000000	
